<?xml version="1.0" encoding="UTF-8" standalone="no"?>
<svg
   xmlns:sketch="http://www.bohemiancoding.com/sketch/ns"
   xmlns:dc="http://purl.org/dc/elements/1.1/"
   xmlns:cc="http://creativecommons.org/ns#"
   xmlns:rdf="http://www.w3.org/1999/02/22-rdf-syntax-ns#"
   xmlns:svg="http://www.w3.org/2000/svg"
   xmlns="http://www.w3.org/2000/svg"
   xmlns:sodipodi="http://sodipodi.sourceforge.net/DTD/sodipodi-0.dtd"
   xmlns:inkscape="http://www.inkscape.org/namespaces/inkscape"
   fill="#000000"
   height="24"
   viewBox="0 0 24 24"
   width="24"
   id="svg2"
   version="1.1"
   inkscape:version="0.91 r13725"
   sodipodi:docname="icon.svg">
  <metadata
     id="metadata12">
    <rdf:RDF>
      <cc:Work
         rdf:about="">
        <dc:format>image/svg+xml</dc:format>
        <dc:type
           rdf:resource="http://purl.org/dc/dcmitype/StillImage" />
        <dc:title></dc:title>
      </cc:Work>
    </rdf:RDF>
  </metadata>
  <defs
     id="defs10">
    <filter
       style="color-interpolation-filters:sRGB;"
       inkscape:label="Drop Shadow"
       id="filter4419">
      <feFlood
         flood-opacity="0.133333"
         flood-color="rgb(0,0,0)"
         result="flood"
         id="feFlood4421" />
      <feComposite
         in="flood"
         in2="SourceGraphic"
         operator="in"
         result="composite1"
         id="feComposite4423" />
      <feGaussianBlur
         in="composite1"
         stdDeviation="0.2"
         result="blur"
         id="feGaussianBlur4425" />
      <feOffset
         dx="0"
         dy="0.6"
         result="offset"
         id="feOffset4427" />
      <feComposite
         in="SourceGraphic"
         in2="offset"
         operator="over"
         result="composite2"
         id="feComposite4429" />
    </filter>
    <filter
       style="color-interpolation-filters:sRGB;"
       inkscape:label="Drop Shadow"
       id="filter4731">
      <feFlood
         flood-opacity="0.133333"
         flood-color="rgb(0,0,0)"
         result="flood"
         id="feFlood4733" />
      <feComposite
         in="flood"
         in2="SourceGraphic"
         operator="in"
         result="composite1"
         id="feComposite4735" />
      <feGaussianBlur
         in="composite1"
         stdDeviation="0.6"
         result="blur"
         id="feGaussianBlur4737" />
      <feOffset
         dx="0"
         dy="0.5"
         result="offset"
         id="feOffset4739" />
      <feComposite
         in="SourceGraphic"
         in2="offset"
         operator="over"
         result="composite2"
         id="feComposite4741" />
    </filter>
    <filter
       style="color-interpolation-filters:sRGB;"
       inkscape:label="Drop Shadow"
       id="filter4887">
      <feFlood
         flood-opacity="0.235294"
         flood-color="rgb(0,0,0)"
         result="flood"
         id="feFlood4889" />
      <feComposite
         in="flood"
         in2="SourceGraphic"
         operator="in"
         result="composite1"
         id="feComposite4891" />
      <feGaussianBlur
         in="composite1"
         stdDeviation="0.2"
         result="blur"
         id="feGaussianBlur4893" />
      <feOffset
         dx="0"
         dy="0.6"
         result="offset"
         id="feOffset4895" />
      <feComposite
         in="SourceGraphic"
         in2="offset"
         operator="over"
         result="composite2"
         id="feComposite4897" />
    </filter>
  </defs>
  <sodipodi:namedview
     pagecolor="#ffffff"
     bordercolor="#666666"
     borderopacity="1"
     objecttolerance="10"
     gridtolerance="10"
     guidetolerance="10"
     inkscape:pageopacity="0"
     inkscape:pageshadow="2"
     inkscape:window-width="1187"
     inkscape:window-height="756"
     id="namedview8"
     showgrid="false"
     inkscape:zoom="5.7558442"
     inkscape:cx="27.286485"
     inkscape:cy="-14.32749"
     inkscape:window-x="24"
     inkscape:window-y="43"
     inkscape:window-maximized="0"
     inkscape:current-layer="svg2">
    <inkscape:grid
       type="xygrid"
       id="grid3359" />
  </sodipodi:namedview>
  <rect
     inkscape:export-ydpi="480"
     inkscape:export-xdpi="480"
     y="27.034502"
     x="0"
     height="24"
     width="24"
     id="rect4463"
     style="opacity:0.93999999;fill:#ffffff;fill-opacity:1;stroke:#000000;stroke-width:0.05;stroke-miterlimit:4;stroke-dasharray:none;stroke-dashoffset:0;stroke-opacity:1" />
  <rect
     inkscape:export-ydpi="480"
     inkscape:export-xdpi="480"
     y="27.034502"
     x="29.238356"
     height="24"
     width="24"
     id="rect4899"
     style="opacity:0.93999999;fill:none;fill-opacity:1;stroke:#000000;stroke-width:0.05;stroke-miterlimit:4;stroke-dasharray:none;stroke-dashoffset:0;stroke-opacity:1" />
  <rect
     style="opacity:0.93999999;fill:none;fill-opacity:1;stroke:#000000;stroke-width:0.05;stroke-miterlimit:4;stroke-dasharray:none;stroke-dashoffset:0;stroke-opacity:1"
     id="rect4246"
     width="20.699007"
     height="20.699007"
     x="58.078609"
     y="28.684998"
     inkscape:export-xdpi="556.54999"
     inkscape:export-ydpi="556.54999" />
  <path
     sodipodi:nodetypes="sssss"
     inkscape:connector-curvature="0"
     id="path4234"
     d="m 33.443887,22.73838 c -3.87,0 -7,-3.13 -7,-7 0,-5.25 4,-12 7,-11.955773 3,0.044227 7,6.705773 7,11.955773 0,3.87 -3.13,7 -7,7 z"
     style="fill:#d8d8d8;fill-opacity:1;stroke:none;stroke-width:0.05;stroke-miterlimit:4;stroke-dasharray:none;stroke-opacity:1" />
  <rect
     style="opacity:1;fill:#68b84f;fill-opacity:1;stroke:none;stroke-width:0.05;stroke-miterlimit:4;stroke-dasharray:none;stroke-dashoffset:0;stroke-opacity:1"
     id="rect4465"
     width="15.84768"
     height="21.990191"
     x="4.025528"
     y="28.016212"
     ry="0.97299314" />
  <rect
     ry="0.97299314"
     y="28.016212"
     x="33.263882"
     height="21.990191"
     width="15.84768"
     id="rect4349"
     style="opacity:1;fill:#4f99b8;fill-opacity:1;stroke:none;stroke-width:0.05;stroke-miterlimit:4;stroke-dasharray:none;stroke-dashoffset:0;stroke-opacity:1" />
  <rect
     inkscape:export-ydpi="480"
     inkscape:export-xdpi="480"
     y="0"
     x="0"
     height="24"
     width="24"
     id="rect4449"
     style="opacity:1;fill:#7ec269;fill-opacity:1;stroke:none;stroke-width:0.05;stroke-miterlimit:4;stroke-dasharray:none;stroke-dashoffset:0;stroke-opacity:1" />
  <g
     id="g3411"
     transform="matrix(0.12458309,0,0,0.12458309,-28.964634,1.0560905)"
     style="fill:#7ec269;fill-opacity:1">
    <g
       sketch:type="MSPage"
       id="Page-1"
       style="fill:#7ec269;fill-opacity:1;fill-rule:evenodd;stroke:none;stroke-width:1"
       transform="translate(32.265625,-8.4687497)">
      <g
         sketch:type="MSArtboardGroup"
         id="Android-Product-Icon-4:1-192px-X-192px-"
         style="fill:#7ec269;fill-opacity:1;stroke:#979797">
        <g
           sketch:type="MSLayerGroup"
           id="keyline-shapes"
           style="fill:#7ec269;fill-opacity:1">
          <rect
             height="192"
             width="192"
             y="0"
             x="0"
             sketch:type="MSShapeGroup"
             id="bg"
             style="fill:#7ec269;fill-opacity:1;stroke-width:0.5" />
          <rect
             rx="10"
             height="152"
             width="152"
             y="20"
             x="20"
             sketch:type="MSShapeGroup"
             id="square"
             style="fill:#7ec269;fill-opacity:1" />
          <circle
             r="88"
             cy="96"
             cx="96"
             sketch:type="MSShapeGroup"
             id="circle"
             style="fill:#7ec269;fill-opacity:1" />
          <path
             sketch:type="MSShapeGroup"
             id="horizontal-rectangle"
             d="M 19.993353,32 C 13.369607,32 8,37.377572 8,43.998772 L 8,148.00123 C 8,154.62797 13.36343,160 19.993353,160 l 152.013297,0 C 178.63039,160 184,154.62243 184,148.00123 L 184,43.998772 C 184,37.372033 178.63657,32 172.00665,32 L 19.993353,32 Z"
             inkscape:connector-curvature="0"
             style="fill:#7ec269;fill-opacity:1" />
          <rect
             rx="10"
             height="176"
             width="128"
             y="8"
             x="32"
             sketch:type="MSShapeGroup"
             id="rectangle-base"
             style="fill:#7ec269;fill-opacity:1" />
        </g>
      </g>
    </g>
  </g>
  <g
     id="g4285">
    <path
       id="path4287"
       d="M 5.0449219,14 C 5.0148926,14.337819 5,14.671875 5,15 c 0,3.87 3.13,7 7,7 3.87,0 7,-3.13 7,-7 0,-0.328742 -0.01478,-0.66216 -0.04492,-1 L 5.0449219,14 Z"
       style="fill:#efefef;fill-opacity:1;stroke:none;stroke-width:0.05;stroke-miterlimit:4;stroke-dasharray:none;stroke-opacity:1"
       inkscape:connector-curvature="0" />
    <path
       style="fill:#d3d3d3;fill-opacity:1;stroke:none;stroke-width:0.05;stroke-miterlimit:4;stroke-dasharray:none;stroke-opacity:1"
       d="M 12,22 C 8.13,22 5,18.87 5,15 5,9.75 9,3 12,3.044227 15,3.088454 19,9.75 19,15 c 0,3.87 -3.13,7 -7,7 z"
       id="path4289"
       inkscape:connector-curvature="0"
       sodipodi:nodetypes="sssss" />
    <path
       id="path4291"
       d="M 12,3.0449219 C 9.1875,3.0034591 5.4953613,8.9327181 5.0449219,14 L 18.955078,14 C 18.503883,8.9425457 14.812147,3.0863795 12,3.0449219 Z"
       style="fill:#f2f2f2;fill-opacity:1;stroke:none;stroke-width:0.05;stroke-miterlimit:4;stroke-dasharray:none;stroke-opacity:1"
       inkscape:connector-curvature="0" />
    <circle
       r="4"
       cy="14"
       cx="12"
       id="circle4293"
       style="opacity:1;fill:#68b84f;fill-opacity:1;stroke:none;stroke-width:0.05;stroke-miterlimit:4;stroke-dasharray:none;stroke-dashoffset:0;stroke-opacity:1" />
    <path
       sodipodi:nodetypes="cscc"
       inkscape:connector-curvature="0"
       id="path4295"
       d="m 18.951915,14 c 0,2.792067 -3.154884,5.055485 -6.951915,5.055485 -3.7970313,0 -6.9837186,-2.263418 -6.9837188,-5.055485 z"
       style="opacity:1;fill:#ffffff;fill-opacity:1;stroke:none;stroke-width:0.07369398;stroke-miterlimit:4;stroke-dasharray:none;stroke-dashoffset:0;stroke-opacity:1" />
    <path
       sodipodi:nodetypes="csc"
       inkscape:connector-curvature="0"
       id="path4297"
       d="m 16.006161,13.947649 c 0,1.252642 -1.79362,2.268109 -4.006161,2.268109 -2.2125412,0 -4.0061603,-1.015467 -4.0061605,-2.268109"
       style="opacity:1;fill:#7ec269;fill-opacity:1;stroke:none;stroke-width:0.03767959;stroke-miterlimit:4;stroke-dasharray:none;stroke-dashoffset:0;stroke-opacity:1" />
  </g>
  <path
     id="path4241"
     d="M 5.0449219,14 C 5.0148926,14.337819 5,14.671875 5,15 c 0,3.87 3.13,7 7,7 3.87,0 7,-3.13 7,-7 0,-0.328742 -0.01478,-0.66216 -0.04492,-1 L 5.0449219,14 Z"
     style="fill:#efefef;fill-opacity:1;stroke:none;stroke-width:0.05;stroke-miterlimit:4;stroke-dasharray:none;stroke-opacity:1"
     inkscape:connector-curvature="0" />
  <path
     style="fill:#d3d3d3;fill-opacity:1;stroke:none;stroke-width:0.05;stroke-miterlimit:4;stroke-dasharray:none;stroke-opacity:1"
     d="M 12,22 C 8.13,22 5,18.87 5,15 5,9.75 9,3 12,3.044227 15,3.088454 19,9.75 19,15 c 0,3.87 -3.13,7 -7,7 z"
     id="path4"
     inkscape:connector-curvature="0"
     sodipodi:nodetypes="sssss" />
  <path
     id="path4236"
     d="M 12,3.0449219 C 9.1875,3.0034591 5.4953613,8.9327181 5.0449219,14 L 18.955078,14 C 18.503883,8.9425457 14.812147,3.0863795 12,3.0449219 Z"
     style="fill:#f2f2f2;fill-opacity:1;stroke:none;stroke-width:0.05;stroke-miterlimit:4;stroke-dasharray:none;stroke-opacity:1"
     inkscape:connector-curvature="0" />
  <circle
     r="4"
     cy="14"
     cx="12"
     id="path4224"
     style="opacity:1;fill:#68b84f;fill-opacity:1;stroke:none;stroke-width:0.05;stroke-miterlimit:4;stroke-dasharray:none;stroke-dashoffset:0;stroke-opacity:1" />
  <path
     sodipodi:nodetypes="cscc"
     inkscape:connector-curvature="0"
     id="circle4226"
     d="m 18.951915,14 c 0,2.792067 -3.154884,5.055485 -6.951915,5.055485 -3.7970313,0 -6.9837186,-2.263418 -6.9837188,-5.055485 z"
     style="opacity:1;fill:#ffffff;fill-opacity:1;stroke:none;stroke-width:0.07369398;stroke-miterlimit:4;stroke-dasharray:none;stroke-dashoffset:0;stroke-opacity:1" />
  <path
     sodipodi:nodetypes="csc"
     inkscape:connector-curvature="0"
     id="ellipse4228"
     d="m 16.006161,13.947649 c 0,1.252642 -1.79362,2.268109 -4.006161,2.268109 -2.2125412,0 -4.0061603,-1.015467 -4.0061605,-2.268109"
     style="opacity:1;fill:#7ec269;fill-opacity:1;stroke:none;stroke-width:0.03767959;stroke-miterlimit:4;stroke-dasharray:none;stroke-dashoffset:0;stroke-opacity:1" />
  <path
     style="opacity:1;fill:#ececec;fill-opacity:1;stroke:none;stroke-width:0.07369398;stroke-miterlimit:4;stroke-dasharray:none;stroke-dashoffset:0;stroke-opacity:1;filter:url(#filter4419)"
     d="m 40.38928,14 c 0,2.792067 -3.154884,5.055485 -6.951915,5.055485 -3.797031,0 -6.983718,-2.263418 -6.983719,-5.055485 z"
     id="path4410"
     inkscape:connector-curvature="0"
     sodipodi:nodetypes="cscc" />
  <path
     d="M0 0h24v24H0z"
     fill="none"
     id="path6" />
  <rect
     inkscape:export-ydpi="480"
     inkscape:export-xdpi="480"
     style="opacity:1;fill:#7ec269;fill-opacity:0;stroke:none;stroke-width:0.05;stroke-miterlimit:4;stroke-dasharray:none;stroke-dashoffset:0;stroke-opacity:1"
     id="rect4467"
     width="24"
     height="24"
     x="0"
     y="25.018051" />
  <rect
     y="25.018051"
     x="29.238356"
     height="24"
     width="24"
     id="rect4299"
     style="opacity:1;fill:#7ec269;fill-opacity:0;stroke:none;stroke-width:0.05;stroke-miterlimit:4;stroke-dasharray:none;stroke-dashoffset:0;stroke-opacity:1"
     inkscape:export-xdpi="480"
     inkscape:export-ydpi="480" />
  <g
     transform="translate(0,26.407942)"
     id="g4469">
    <path
       id="path4471"
       d="M 5.0449219,14 C 5.0148926,14.337819 5,14.671875 5,15 c 0,3.87 3.13,7 7,7 3.87,0 7,-3.13 7,-7 0,-0.328742 -0.01478,-0.66216 -0.04492,-1 L 5.0449219,14 Z"
       style="fill:#efefef;fill-opacity:1;stroke:none;stroke-width:0.05;stroke-miterlimit:4;stroke-dasharray:none;stroke-opacity:1"
       inkscape:connector-curvature="0" />
    <path
       style="fill:#d3d3d3;fill-opacity:1;stroke:none;stroke-width:0.05;stroke-miterlimit:4;stroke-dasharray:none;stroke-opacity:1"
       d="M 12,22 C 8.13,22 5,18.87 5,15 5,9.75 9,3 12,3.044227 15,3.088454 19,9.75 19,15 c 0,3.87 -3.13,7 -7,7 z"
       id="path4473"
       inkscape:connector-curvature="0"
       sodipodi:nodetypes="sssss" />
    <path
       id="path4475"
       d="M 12,3.0449219 C 9.1875,3.0034591 5.4953613,8.9327181 5.0449219,14 L 18.955078,14 C 18.503883,8.9425457 14.812147,3.0863795 12,3.0449219 Z"
       style="fill:#f2f2f2;fill-opacity:1;stroke:none;stroke-width:0.05;stroke-miterlimit:4;stroke-dasharray:none;stroke-opacity:1"
       inkscape:connector-curvature="0" />
    <circle
       r="4"
       cy="14"
       cx="12"
       id="circle4477"
       style="opacity:1;fill:#68b84f;fill-opacity:1;stroke:none;stroke-width:0.05;stroke-miterlimit:4;stroke-dasharray:none;stroke-dashoffset:0;stroke-opacity:1" />
    <path
       sodipodi:nodetypes="cscc"
       inkscape:connector-curvature="0"
       id="path4479"
       d="m 18.951915,14 c 0,2.792067 -3.154884,5.055485 -6.951915,5.055485 -3.7970313,0 -6.9837186,-2.263418 -6.9837188,-5.055485 z"
       style="opacity:1;fill:#ffffff;fill-opacity:1;stroke:none;stroke-width:0.07369398;stroke-miterlimit:4;stroke-dasharray:none;stroke-dashoffset:0;stroke-opacity:1" />
    <path
       sodipodi:nodetypes="csc"
       inkscape:connector-curvature="0"
       id="path4481"
       d="m 16.006161,13.947649 c 0,1.252642 -1.79362,2.268109 -4.006161,2.268109 -2.2125412,0 -4.0061603,-1.015467 -4.0061605,-2.268109"
       style="opacity:1;fill:#7ec269;fill-opacity:1;stroke:none;stroke-width:0.03767959;stroke-miterlimit:4;stroke-dasharray:none;stroke-dashoffset:0;stroke-opacity:1" />
  </g>
  <g
     id="g4317"
     transform="translate(29.238355,26.407942)"
     style="filter:url(#filter4731)">
    <path
       inkscape:connector-curvature="0"
       style="fill:#efefef;fill-opacity:1;stroke:none;stroke-width:0.05;stroke-miterlimit:4;stroke-dasharray:none;stroke-opacity:1"
       d="M 5.0449219,14 C 5.0148926,14.337819 5,14.671875 5,15 c 0,3.87 3.13,7 7,7 3.87,0 7,-3.13 7,-7 0,-0.328742 -0.01478,-0.66216 -0.04492,-1 L 5.0449219,14 Z"
       id="path4319" />
    <path
       sodipodi:nodetypes="sssss"
       inkscape:connector-curvature="0"
       id="path4321"
       d="M 12,22 C 8.13,22 5,18.87 5,15 5,9.75 9,3 12,3.044227 15,3.088454 19,9.75 19,15 c 0,3.87 -3.13,7 -7,7 z"
       style="fill:#d3d3d3;fill-opacity:1;stroke:none;stroke-width:0.05;stroke-miterlimit:4;stroke-dasharray:none;stroke-opacity:1" />
    <path
       inkscape:connector-curvature="0"
       style="fill:#f2f2f2;fill-opacity:1;stroke:none;stroke-width:0.05;stroke-miterlimit:4;stroke-dasharray:none;stroke-opacity:1"
       d="M 12,3.0449219 C 9.1875,3.0034591 5.4953613,8.9327181 5.0449219,14 L 18.955078,14 C 18.503883,8.9425457 14.812147,3.0863795 12,3.0449219 Z"
       id="path4323" />
    <circle
       style="opacity:1;fill:#68b84f;fill-opacity:1;stroke:none;stroke-width:0.05;stroke-miterlimit:4;stroke-dasharray:none;stroke-dashoffset:0;stroke-opacity:1"
       id="circle4325"
       cx="12"
       cy="14"
       r="4" />
    <path
       style="opacity:1;fill:#ffffff;fill-opacity:1;stroke:none;stroke-width:0.07369398;stroke-miterlimit:4;stroke-dasharray:none;stroke-dashoffset:0;stroke-opacity:1"
       d="m 18.951915,14 c 0,2.792067 -3.154884,5.055485 -6.951915,5.055485 -3.7970313,0 -6.9837186,-2.263418 -6.9837188,-5.055485 z"
       id="path4327"
       inkscape:connector-curvature="0"
       sodipodi:nodetypes="cscc" />
    <path
       style="opacity:1;fill:#7ec269;fill-opacity:1;stroke:none;stroke-width:0.03767959;stroke-miterlimit:4;stroke-dasharray:none;stroke-dashoffset:0;stroke-opacity:1"
       d="m 16.006161,13.947649 c 0,1.252642 -1.79362,2.268109 -4.006161,2.268109 -2.2125412,0 -4.0061603,-1.015467 -4.0061605,-2.268109"
       id="path4329"
       inkscape:connector-curvature="0"
       sodipodi:nodetypes="csc" />
  </g>
  <g
     transform="translate(0,26.407942)"
     id="g4483">
    <path
       inkscape:connector-curvature="0"
       style="fill:#efefef;fill-opacity:1;stroke:none;stroke-width:0.05;stroke-miterlimit:4;stroke-dasharray:none;stroke-opacity:1"
       d="M 5.0449219,14 C 5.0148926,14.337819 5,14.671875 5,15 c 0,3.87 3.13,7 7,7 3.87,0 7,-3.13 7,-7 0,-0.328742 -0.01478,-0.66216 -0.04492,-1 L 5.0449219,14 Z"
       id="path4485" />
    <path
       sodipodi:nodetypes="sssss"
       inkscape:connector-curvature="0"
       id="path4487"
       d="M 12,22 C 8.13,22 5,18.87 5,15 5,9.75 9,3 12,3.044227 15,3.088454 19,9.75 19,15 c 0,3.87 -3.13,7 -7,7 z"
       style="fill:#d3d3d3;fill-opacity:1;stroke:none;stroke-width:0.05;stroke-miterlimit:4;stroke-dasharray:none;stroke-opacity:1" />
    <path
       inkscape:connector-curvature="0"
       style="fill:#f2f2f2;fill-opacity:1;stroke:none;stroke-width:0.05;stroke-miterlimit:4;stroke-dasharray:none;stroke-opacity:1"
       d="M 12,3.0449219 C 9.1875,3.0034591 5.4953613,8.9327181 5.0449219,14 L 18.955078,14 C 18.503883,8.9425457 14.812147,3.0863795 12,3.0449219 Z"
       id="path4489" />
    <circle
       style="opacity:1;fill:#68b84f;fill-opacity:1;stroke:none;stroke-width:0.05;stroke-miterlimit:4;stroke-dasharray:none;stroke-dashoffset:0;stroke-opacity:1"
       id="circle4491"
       cx="12"
       cy="14"
       r="4" />
    <path
       style="opacity:1;fill:#ffffff;fill-opacity:1;stroke:none;stroke-width:0.07369398;stroke-miterlimit:4;stroke-dasharray:none;stroke-dashoffset:0;stroke-opacity:1"
       d="m 18.951915,14 c 0,2.792067 -3.154884,5.055485 -6.951915,5.055485 -3.7970313,0 -6.9837186,-2.263418 -6.9837188,-5.055485 z"
       id="path4493"
       inkscape:connector-curvature="0"
       sodipodi:nodetypes="cscc" />
    <path
       style="opacity:1;fill:#7ec269;fill-opacity:1;stroke:none;stroke-width:0.03767959;stroke-miterlimit:4;stroke-dasharray:none;stroke-dashoffset:0;stroke-opacity:1"
       d="m 16.006161,13.947649 c 0,1.252642 -1.79362,2.268109 -4.006161,2.268109 -2.2125412,0 -4.0061603,-1.015467 -4.0061605,-2.268109"
       id="path4495"
       inkscape:connector-curvature="0"
       sodipodi:nodetypes="csc" />
  </g>
  <g
     id="g4331"
     transform="translate(34.189844,26.407942)"
     style="filter:url(#filter4887)">
    <g
       id="g4721"
       transform="translate(22.238267,0)">
      <g
         id="g4713">
        <g
           id="g4709">
          <g
             id="g4706">
            <path
               style="fill:#d3d3d3;fill-opacity:1;stroke:none;stroke-width:0.05;stroke-miterlimit:4;stroke-dasharray:none;stroke-opacity:1"
               d="M 12,22 C 8.13,22 5,18.87 5,15 5,9.75 9,3 12,3.044227 15,3.088454 19,9.75 19,15 c 0,3.87 -3.13,7 -7,7 z"
               id="path4335"
               inkscape:connector-curvature="0"
               sodipodi:nodetypes="sssss" />
          </g>
        </g>
        <path
           id="path4337"
           d="M 12,3.0449219 C 9.1875,3.0034591 5.4953613,8.9327181 5.0449219,14 L 18.955078,14 C 18.503883,8.9425457 14.812147,3.0863795 12,3.0449219 Z"
           style="fill:#f2f2f2;fill-opacity:1;stroke:none;stroke-width:0.05;stroke-miterlimit:4;stroke-dasharray:none;stroke-opacity:1"
           inkscape:connector-curvature="0" />
        <circle
           r="4"
           cy="14"
           cx="12"
           id="circle4339"
           style="opacity:1;fill:#68b84f;fill-opacity:1;stroke:none;stroke-width:0.05;stroke-miterlimit:4;stroke-dasharray:none;stroke-dashoffset:0;stroke-opacity:1" />
        <path
           sodipodi:nodetypes="cscc"
           inkscape:connector-curvature="0"
           id="path4341"
           d="m 18.951915,14 c 0,2.792067 -3.154884,5.055485 -6.951915,5.055485 -3.7970313,0 -6.9837186,-2.263418 -6.9837188,-5.055485 z"
           style="opacity:1;fill:#ffffff;fill-opacity:1;stroke:none;stroke-width:0.07369398;stroke-miterlimit:4;stroke-dasharray:none;stroke-dashoffset:0;stroke-opacity:1" />
      </g>
      <path
         style="opacity:1;fill:#7ec269;fill-opacity:1;stroke:none;stroke-width:0.03767959;stroke-miterlimit:4;stroke-dasharray:none;stroke-dashoffset:0;stroke-opacity:1"
         d="m 16.006161,13.947649 c 0,1.252642 -1.79362,2.268109 -4.006161,2.268109 -2.2125412,0 -4.0061603,-1.015467 -4.0061605,-2.268109"
         id="path4343"
         inkscape:connector-curvature="0"
         sodipodi:nodetypes="csc" />
    </g>
  </g>
  <path
     style="fill:none"
     inkscape:connector-curvature="0"
     d="m 0,26.407942 24,0 0,24 -24,0 z"
     id="path4497" />
  <path
     id="path4345"
     d="m 29.238355,26.407942 24,0 0,24 -24,0 z"
     inkscape:connector-curvature="0"
     style="fill:none" />
  <rect
     style="opacity:1;fill:#7ec269;fill-opacity:0.42690059;stroke:#000000;stroke-width:0.05;stroke-miterlimit:4;stroke-dasharray:none;stroke-dashoffset:0;stroke-opacity:1"
     id="rect4347"
     width="15.84768"
     height="21.990191"
     x="-20.884539"
     y="1.0270069"
     ry="0.97299314" />
  <circle
     style="opacity:1;fill:#a9a9a9;fill-opacity:1;stroke:none;stroke-width:0.05;stroke-miterlimit:4;stroke-dasharray:none;stroke-dashoffset:0;stroke-opacity:1"
     id="circle4248"
     cx="33.443886"
     cy="14"
     r="4" />
  <path
     sodipodi:nodetypes="sssss"
     inkscape:connector-curvature="0"
     id="path4234-0"
     d="m 49.140092,22.912875 c -3.87,0 -7,-3.13 -7,-7 0,-5.25 4,-12.0000003 7,-11.9557733 3,0.04423 7,6.7057733 7,11.9557733 0,3.87 -3.13,7 -7,7 z"
     style="fill:#efefef;fill-opacity:1;stroke:none;stroke-width:0.05;stroke-miterlimit:4;stroke-dasharray:none;stroke-opacity:1" />
  <circle
     style="opacity:1;fill:#7ec269;fill-opacity:1;stroke:none;stroke-width:0.05;stroke-miterlimit:4;stroke-dasharray:none;stroke-dashoffset:0;stroke-opacity:1"
     id="circle4248-7"
     cx="49.140091"
     cy="14.174496"
     r="4" />
</svg>
